<?xml version="1.0" encoding="UTF-8" standalone="no"?>
<!-- Created with Inkscape (http://www.inkscape.org/) -->

<svg
   width="1200"
   height="640"
   viewBox="0 0 1200 640"
   version="1.1"
   id="svg5"
   inkscape:version="1.1.1 (c3084ef, 2021-09-22)"
   sodipodi:docname="Logo.svg"
   xmlns:inkscape="http://www.inkscape.org/namespaces/inkscape"
   xmlns:sodipodi="http://sodipodi.sourceforge.net/DTD/sodipodi-0.dtd"
   xmlns="http://www.w3.org/2000/svg"
   xmlns:svg="http://www.w3.org/2000/svg">
  <sodipodi:namedview
     id="namedview7"
     pagecolor="#ffffff"
     bordercolor="#666666"
     borderopacity="1.0"
     inkscape:pageshadow="2"
     inkscape:pageopacity="0.0"
     inkscape:pagecheckerboard="0"
     inkscape:document-units="px"
     showgrid="false"
     inkscape:snap-page="false"
     width="1080px"
     inkscape:zoom="0.26082948"
     inkscape:cx="640.26504"
     inkscape:cy="507.99472"
     inkscape:window-width="1920"
     inkscape:window-height="1027"
     inkscape:window-x="0"
     inkscape:window-y="25"
     inkscape:window-maximized="1"
     inkscape:current-layer="layer1" />
  <defs
     id="defs2" />
  <g
     inkscape:label="레이어 1"
     inkscape:groupmode="layer"
     id="layer1">
    <g
       id="g45047"
       transform="translate(2.2888184e-5,-279.99999)">
      <rect
         style="fill:#6e0000;fill-opacity:1;stroke-width:0.839613"
         id="rect31"
         width="1183.7054"
         height="9.864212"
         x="8.1472549"
         y="-720.40704"
         transform="scale(1,-1)" />
      <rect
         style="fill:#6e0000;fill-opacity:1;stroke-width:0.839613"
         id="rect31-7"
         width="1183.7054"
         height="9.864212"
         x="8.1472549"
         y="-742.10828"
         transform="scale(1,-1)" />
      <text
         xml:space="preserve"
         style="font-style:normal;font-variant:normal;font-weight:bold;font-stretch:normal;font-size:189.393px;line-height:1.25;font-family:Arial;-inkscape-font-specification:'Arial, Bold';font-variant-ligatures:normal;font-variant-caps:normal;font-variant-numeric:normal;font-variant-east-asian:normal;fill:#6e0000;fill-opacity:1;stroke:none;stroke-width:0.986421"
         x="2.4136817"
         y="907.12744"
         id="text1185"><tspan
           sodipodi:role="line"
           id="tspan1183"
           x="2.4136817"
           y="907.12744"
           style="fill:#6e0000;fill-opacity:1;stroke-width:0.986421">MINIMANIMO</tspan></text>
      <g
         id="g18824"
         transform="matrix(0.89580332,0,0,0.89580332,-266.28204,83.36221)"
         style="stroke:#6e0000;stroke-opacity:1">
        <rect
           style="fill:#edc51e;fill-opacity:1;stroke:#6e0000;stroke-width:16.417;stroke-linecap:butt;stroke-linejoin:round;stroke-miterlimit:4;stroke-dasharray:none;stroke-opacity:1"
           id="rect8109"
           width="60"
           height="38"
           x="1044.8303"
           y="-673.68024"
           transform="scale(1,-1)"
           rx="19" />
        <path
           id="rect8109-6"
           style="fill:#387099;fill-opacity:1;stroke:#6e0000;stroke-width:16.417;stroke-linecap:butt;stroke-linejoin:round;stroke-miterlimit:4;stroke-dasharray:none;stroke-opacity:1"
           d="m 985.02344,388.32617 c -64.16552,3.7e-4 -116.18173,52.58234 -116.18164,117.44531 0.0616,23.51328 7.10371,46.46655 20.21484,65.88868 h -93.01172 c -10.526,0 -19,8.474 -19,19 0,10.526 8.474,19 19,19 h 80.83789 c -4.20287,3.47958 -6.875,8.73909 -6.875,14.64648 0,10.526 8.474,19 19,19 h 111.99999 c 10.526,0 19,-8.474 19,-19 0,-2.20998 -2.6622,-12.71354 -3.3499,-14.68318 h 21.9612 l 99.4258,0.0367 c 10.526,0.004 19,-8.474 19,-19 0,-10.526 -8.474,-19 -19,-19 h -57.0547 c 13.1118,-19.42191 20.1546,-42.3752 20.2168,-65.88868 10e-5,-64.86373 -52.0173,-117.44601 -116.18356,-117.44531 z"
           sodipodi:nodetypes="cccssscssssccsssccc" />
        <path
           style="fill:#4d2c21;fill-opacity:1;stroke:#6e0000;stroke-width:18;stroke-linecap:round;stroke-linejoin:round;stroke-miterlimit:4;stroke-dasharray:none;stroke-opacity:1"
           d="M 865.82955,478.75057 823.87187,240.29773 1016.3146,390.50038 Z"
           id="path10245" />
        <path
           style="fill:none;stroke:#6e0000;stroke-width:16;stroke-linecap:butt;stroke-linejoin:miter;stroke-miterlimit:4;stroke-dasharray:none;stroke-opacity:1"
           d="m 851.16166,262.67303 -13.89137,45.46264"
           id="path10396" />
        <path
           style="fill:none;stroke:#6e0000;stroke-width:16;stroke-linecap:butt;stroke-linejoin:miter;stroke-miterlimit:4;stroke-dasharray:none;stroke-opacity:1"
           d="m 980.6039,363.06971 -17.67992,59.354"
           id="path10396-3"
           sodipodi:nodetypes="cc" />
        <path
           style="fill:none;stroke:#6e0000;stroke-width:16;stroke-linecap:butt;stroke-linejoin:miter;stroke-miterlimit:4;stroke-dasharray:none;stroke-opacity:1"
           d="M 882.73293,292.35004 852.4245,392.7467"
           id="path10396-8"
           sodipodi:nodetypes="cc" />
        <path
           style="fill:none;stroke:#6e0000;stroke-width:16;stroke-linecap:butt;stroke-linejoin:miter;stroke-miterlimit:4;stroke-dasharray:none;stroke-opacity:1"
           d="M 948.40119,340.6541 918.09276,446.10216"
           id="path10396-8-2"
           sodipodi:nodetypes="cc" />
        <path
           style="fill:none;stroke:#6e0000;stroke-width:16;stroke-linecap:butt;stroke-linejoin:miter;stroke-miterlimit:4;stroke-dasharray:none;stroke-opacity:1"
           d="M 916.97502,315.21135 865.82955,478.75057"
           id="path10396-8-0"
           sodipodi:nodetypes="cc" />
        <path
           style="fill:none;stroke:#6e0000;stroke-width:16;stroke-linecap:round;stroke-linejoin:miter;stroke-miterlimit:4;stroke-dasharray:none;stroke-opacity:1"
           d="m 869.60831,499.2236 c 0,0 -0.5287,-2.86398 11.85507,-2.80551 11.78457,0.0556 23.54812,9.06431 23.46343,20.0486 -0.11345,15.54162 -0.32162,29.34536 15.56464,29.92638 10.47095,0 15.98466,-5.09637 16.46061,-16.04326 0.47596,-10.9469 0,-26.91277 0,-26.91277 0,0 -0.75418,-18.4418 15.90414,-18.4418 16.65833,0 19.98999,13.68228 19.98999,18.4418 v 48.1915 c 0,0 1.90381,11.8988 15.23047,11.8988 13.32664,0 18.08614,-5.71142 18.56214,-14.27856 0.4759,-8.56714 0.4759,-39.02808 0.4759,-39.02808 0,0 0.952,-15.23047 16.1824,-15.23047 15.2305,0 17.6102,10.9469 18.0862,15.23047 0.476,4.28357 1.0911,11.74401 1.0911,11.74401 0,0 0.7172,13.95165 16.9951,13.86122 12.6203,-0.0701 15.9444,-13.86122 15.9444,-13.86122 V 488.3269 c 0,0 2.6177,-17.61023 15.9444,-18.56213"
           id="path11698"
           sodipodi:nodetypes="csccscsscsscsscsccc" />
      </g>
      <path
         id="path25965"
         style="fill:#edc51e;fill-opacity:1;stroke:#6e0000;stroke-width:14.333;stroke-linecap:round;stroke-linejoin:round;stroke-miterlimit:4;stroke-dasharray:none;stroke-opacity:1"
         d="m 512.18561,530.76734 c -0.004,0.0845 -0.0153,0.16736 -0.0195,0.25196 -0.0899,1.79317 -0.13672,3.59829 -0.13672,5.41406 0.007,2.63291 0.11179,5.25906 0.3125,7.87109 0.20072,2.61204 0.49733,5.21026 0.88867,7.79102 0.39135,2.58076 0.87826,5.14255 1.45704,7.68164 0.57877,2.53909 1.25064,5.05594 2.01367,7.54297 0.76302,2.48703 1.61646,4.94457 2.56054,7.36914 0.94409,2.42456 1.97766,4.81626 3.09961,7.16797 1.12196,2.3517 2.33228,4.66318 3.62891,6.93164 1.29663,2.26845 2.68031,4.49317 4.14844,6.66797 h -83.32032 c -1.17865,0 -2.32947,0.11972 -3.43945,0.3457 -1.10997,0.22598 -2.17844,0.55878 -3.19726,0.98828 -1.01883,0.4295 -1.98738,0.95587 -2.89258,1.56641 -0.9052,0.61053 -1.74848,1.30511 -2.51758,2.07422 -0.7691,0.7691 -1.46368,1.61238 -2.07422,2.51757 -0.61053,0.9052 -1.13691,1.87181 -1.56641,2.89063 -0.42949,1.01882 -0.76229,2.08924 -0.98828,3.19922 -0.22598,1.10997 -0.34375,2.2608 -0.34375,3.43945 0,1.17865 0.11777,2.32753 0.34375,3.4375 0.22599,1.10997 0.55879,2.1804 0.98828,3.19922 0.4295,1.01882 0.95588,1.98543 1.56641,2.89062 0.61054,0.9052 1.30512,1.74848 2.07422,2.51758 0.7691,0.76911 1.61238,1.46564 2.51758,2.07617 0.9052,0.61054 1.87375,1.13496 2.89258,1.56446 1.01882,0.42949 2.08729,0.76229 3.19726,0.98828 1.10998,0.22598 2.2608,0.3457 3.43945,0.3457 h 72.41407 c -0.94124,0.77926 -1.79498,1.65838 -2.54883,2.6211 -0.75385,0.96271 -1.40689,2.00855 -1.94141,3.12304 -0.53452,1.11449 -0.95114,2.29668 -1.23437,3.53125 -0.28324,1.23457 -0.4336,2.52274 -0.4336,3.84571 0,1.17865 0.11972,2.32752 0.34571,3.4375 0.22598,1.10997 0.55878,2.18039 0.98828,3.19921 0.42949,1.01883 0.95587,1.98543 1.56641,2.89063 0.61053,0.9052 1.30511,1.74847 2.07421,2.51758 0.76911,0.7691 1.61238,1.46563 2.51758,2.07617 0.9052,0.61053 1.8718,1.13496 2.89063,1.56445 1.01882,0.4295 2.08924,0.7623 3.19922,0.98828 1.10997,0.22599 2.2608,0.34571 3.43945,0.34571 h 100.33008 c 1.17865,0 2.32752,-0.11972 3.4375,-0.34571 1.10995,-0.22598 2.18035,-0.55878 3.19925,-0.98828 1.0188,-0.42949 1.9854,-0.95392 2.8906,-1.56445 0.9052,-0.61054 1.7485,-1.30707 2.5176,-2.07617 0.7691,-0.76911 1.4656,-1.61238 2.0761,-2.51758 0.6106,-0.9052 1.135,-1.8718 1.5645,-2.89063 0.4295,-1.01882 0.7623,-2.08924 0.9883,-3.19921 0.226,-1.10998 0.3457,-2.25885 0.3457,-3.4375 0,-0.49493 -0.1496,-1.45451 -0.3828,-2.64258 -0.2332,-1.18807 -0.5501,-2.60548 -0.8868,-4.01563 -0.6732,-2.82029 -1.4244,-5.61389 -1.7324,-6.49609 h 19.6739 l 89.0664,0.0332 c 1.1786,5e-4 2.3275,-0.11804 3.4375,-0.34375 1.1099,-0.22571 2.1804,-0.55888 3.1992,-0.98828 1.0188,-0.4294 1.9874,-0.95583 2.8926,-1.56641 0.9052,-0.61057 1.7465,-1.30499 2.5156,-2.07421 0.7691,-0.76923 1.4656,-1.61222 2.0762,-2.51758 0.6105,-0.90537 1.1349,-1.8736 1.5644,-2.89258 0.4295,-1.01898 0.7643,-2.08914 0.9902,-3.19922 0.226,-1.11008 0.3438,-2.25885 0.3438,-3.4375 0,-1.17865 -0.1178,-2.32948 -0.3438,-3.43945 -0.2259,-1.10998 -0.5607,-2.1804 -0.9902,-3.19922 -0.4295,-1.01882 -0.9539,-1.98543 -1.5644,-2.89063 -0.6106,-0.90519 -1.3071,-1.74847 -2.0762,-2.51757 -0.7691,-0.76911 -1.6104,-1.46369 -2.5156,-2.07422 -0.9052,-0.61054 -1.8738,-1.13691 -2.8926,-1.56641 -1.0188,-0.4295 -2.0893,-0.7623 -3.1992,-0.98828 -1.11,-0.22598 -2.2589,-0.3457 -3.4375,-0.3457 h -51.1094 c 1.4682,-2.17478 2.8498,-4.39954 4.1465,-6.66797 1.2967,-2.26844 2.5068,-4.57995 3.6289,-6.93164 1.122,-2.3517 2.1574,-4.74341 3.1015,-7.16797 0.9442,-2.42456 1.7975,-4.88211 2.5606,-7.36914 0.7631,-2.48703 1.4348,-5.00192 2.0137,-7.54102 0.5788,-2.5391 1.0656,-5.10282 1.457,-7.68359 0.3914,-2.58078 0.6879,-5.17897 0.8887,-7.79102 0.2007,-2.61205 0.3055,-5.23816 0.3125,-7.87109 0,-1.81579 -0.0449,-3.62087 -0.1348,-5.41406 -0.0899,-1.7932 -0.2247,-3.5734 -0.4023,-5.3418 -0.1777,-1.7684 -0.3989,-3.52422 -0.6622,-5.26563 -0.2632,-1.7414 -0.5694,-3.46943 -0.916,-5.18164 -0.3466,-1.7122 -0.7343,-3.40904 -1.1621,-5.08984 -0.3056,-1.20077 -0.6558,-2.38263 -1.0019,-3.56641 l -4.543,-2.39453 c -11.9381,0.85272 -14.2832,16.62696 -14.2832,16.62696 v 30.13281 c 0,0 -2.9779,12.35517 -14.2832,12.41797 -14.5818,0.081 -15.2246,-12.41797 -15.2246,-12.41797 0,0 -0.5502,-6.6823 -0.9766,-10.51953 -0.4264,-3.83724 -2.5576,-13.64453 -16.2012,-13.64453 -13.6434,0 -14.498,13.64453 -14.498,13.64453 0,0 5e-4,27.28646 -0.4258,34.96093 -0.4264,7.67447 -4.68889,12.79102 -16.62694,12.79102 -11.93806,0 -13.64453,-10.6582 -13.64453,-10.6582 v -43.16993 c 0,-4.26359 -2.98366,-16.52148 -17.90625,-16.52148 -14.92258,0 -14.24805,16.52148 -14.24805,16.52148 0,0 0.42636,14.30116 0,24.10743 -0.42636,9.80626 -5.36423,14.37109 -14.74414,14.37109 -14.23097,-0.52048 -14.04499,-12.88441 -13.94336,-26.80664 0.0759,-9.83977 -10.46287,-17.91114 -21.01953,-17.96094 -11.09342,-0.0524 -10.61914,2.51367 -10.61914,2.51367 z" />
    </g>
  </g>
</svg>
